# xmcd
#
# Track frame offsets: 
#        150
#        13112
#        26677
#        40206
#        53129
#        62641
#        75331
#        88156
#        98886
#        107887
#        117649
#        128074
#        139716
#        150805
#        164474
#        176053
#        186167
#        199138
#        211648
#        223035
#        236166
#        248873
#        261076
#        270353
#        279874
#
# Disc length: 3869 seconds
#
# Revision: 3
# Processed by: cddbd v1.5.2PL0 Copyright (c) Steve Scherf et al.
# Submitted via: ExactAudioCopy v1.0b1
#
DISCID=5c0f1b19
DTITLE=Various Artist - Guys Of Golden World
DYEAR=2010
DGENRE=R&B
TTITLE0=The Parliaments - Heart Trouble (mono)
TTITLE1=The Sunliners - All Alone (mono)
TTITLE2=Tony Michaels - I Love The Life I Live (And Live The Life I Lo
TTITLE2=ve) (mono)
TTITLE3=Sam Bowie and The Blue Feelings - (Think Of) The Times We Had To
TTITLE3=gether (mono)
TTITLE4=The Dramatics - Bingo! (mono)
TTITLE5=The Royal Jokers - From A To Z (Love Game) (inst) (mono)
TTITLE6=Larry Knight and The Upsetters - Everything's Gone Wrong (mono)
TTITLE7=Elliott Baron - The Spare Rib (mono)
TTITLE8=Ronnie Savoy - Loving You (mono)
TTITLE9=Al Kent - Country Boy (mono)
TTITLE10=Sonny Stitt - Concerto For Jazz Lovers (mono)
TTITLE11=Gino Parks - My Sophisticated Lady (mono)
TTITLE12=Tony Michaels - Picture Me And You (mono)
TTITLE13=The Sunliners - The Swingin' Kind (mono)
TTITLE14=Larry Knight and The Upsetters - Hurt Me (mono)
TTITLE15=The Manhattans - Just A little Loving (mono)
TTITLE16=Sonny Stitt - The Double-O-Soul Of Sonny Stitt (mono)
TTITLE17=The Parliaments - That Was My Girl (mono)
TTITLE18=Sam Bowie and The Blue Feelings - Swoop, Swoop (mono)
TTITLE19=The Royal Jokers - Love Game (From A To Z) (mono)
TTITLE20=Carl Carlton - Nothin' No Sweeter Than Love (mono)
TTITLE21=The Dramatics - Inky Dinky Wang Dang Doo (mono)
TTITLE22=The Dramatics - Somewhere (mono)
TTITLE23=Elliott Baron - Man To Man (mono)
TTITLE24=Willie Kendrick - Fine As Wine (mono)
EXTD=
EXTT0=
EXTT1=
EXTT2=
EXTT3=
EXTT4=
EXTT5=
EXTT6=
EXTT7=
EXTT8=
EXTT9=
EXTT10=
EXTT11=
EXTT12=
EXTT13=
EXTT14=
EXTT15=
EXTT16=
EXTT17=
EXTT18=
EXTT19=
EXTT20=
EXTT21=
EXTT22=
EXTT23=
EXTT24=
PLAYORDER=
